
<svg width="132px" height="61px" viewBox="0 0 132 61" version="1.1" xmlns="http://www.w3.org/2000/svg" xmlns:xlink="http://www.w3.org/1999/xlink">
    <desc>Created with Sketch.</desc>
    <defs>
        <polygon id="path-1" points="2.81449893e-05 0.117898236 131.992914 0.117898236 131.992914 60.7175926 2.81449893e-05 60.7175926"></polygon>
    </defs>
    <g id="Page-1" stroke="none" stroke-width="1" fill="none" fill-rule="evenodd">
        <g id="Disney-Collection" transform="translate(-654.000000, -30.000000)">
            <g id="wires/logo" transform="translate(654.000000, 30.000000)">
                <path d="M1.29125415,22.7524073 L1.29125415,38.8183185 C1.29125415,45.5398036 6.27636348,51.2981843 13.1289792,52.4923759 L62.814911,58.5191533 C64.4953497,58.8130013 66.2167184,58.8141582 67.8985983,58.5252269 L118.525057,52.4437868 C125.320889,51.2750467 130.300234,45.613844 130.392759,38.9510707 L130.614992,22.9502342 C130.713282,15.8923856 125.313972,9.88498601 118.061567,8.9817503 L67.215758,2.65562967 C65.9812264,2.50234279 64.7311299,2.50349967 63.4963101,2.6602572 L13.8072077,8.97480901 C6.64531057,9.88498601 1.29125415,15.7784327 1.29125415,22.7524073" id="Fill-1" fill="#FFFFFF"></path>
                <g id="Group-3" stroke-width="1" transform="translate(0.000000, 0.164644)">
                    <mask id="mask-2" fill="white">
                        <use xlink:href="#path-1"></use>
                    </mask>
                    <g id="Clip-2"></g>
                    <path d="M128.917589,38.5319208 C128.827243,45.0377403 123.965197,50.5653005 117.329452,51.7065088 L67.8955932,57.6449718 C66.253333,57.9270968 64.5725143,57.9259671 62.9316614,57.6387588 L14.4161731,51.7539532 C7.72498337,50.5878931 2.85730746,44.9651616 2.85730746,38.4022958 L2.85730746,22.7148468 C2.85730746,15.9051569 8.08523923,10.1505412 15.0784247,9.26152269 L63.597009,3.09572176 C64.8027403,2.94265694 66.0233885,2.94180972 67.2288384,3.09148565 L116.876881,9.26858287 C123.958442,10.1505412 129.230561,16.0161431 129.134305,22.9080134 L128.917589,38.5319208 Z M67.2845655,0.241147685 C66.0247957,0.0750921296 64.7487019,0.0767865741 63.4892136,0.246513426 L12.7747574,7.05507361 C5.46494072,8.03672176 2.81449893e-05,14.3908884 2.81449893e-05,21.9099856 L2.81449893e-05,39.2342681 C2.81449893e-05,46.4836662 5.08751642,52.6923931 12.0818277,53.979606 L62.7920623,60.4794949 C64.5080623,60.7952264 66.2651539,60.7972032 67.9811539,60.4842958 L119.651696,53.9279255 C126.58831,52.6664116 131.670732,46.5627403 131.764736,39.3774486 L131.991585,22.1246153 C132.091218,14.5140181 126.58071,8.03587454 119.178297,7.06269861 L67.2845655,0.241147685 Z" id="Fill-1" fill="#4D5859" mask="url(#mask-2)"></path>
                </g>
                <path d="M64.1241928,24.1081884 C64.1241928,24.1081884 63.9623591,21.6365588 64.8742567,20.9322347 C65.6457109,20.3366375 66.6411991,20.3281653 66.3462397,21.4027255 C66.0504358,22.4781329 64.1241928,24.1081884 64.1241928,24.1081884 Z M69.5291565,26.4606421 C69.5291565,26.4606421 68.0186149,27.020656 67.2111352,27.2604199 C66.1078516,27.5874477 65.7625126,27.3078644 66.3988708,26.6857208 C66.3988708,26.6857208 68.5221288,24.5207856 68.9378303,23.4572394 C69.2189987,22.7402069 70.6757834,17.3530032 66.0374891,17.3580866 C63.1182908,17.3611931 61.8965168,19.3095218 61.1180264,21.8898782 C60.3400989,24.4693875 60.9021544,27.9831005 61.8545808,29.3183227 C62.8064443,30.6532625 64.3482269,32.6168412 67.0954593,32.1579292 C69.8443804,31.6995819 69.8626746,31.0271699 69.8626746,31.0271699 L69.5291565,26.4606421 Z" id="Fill-4" fill="#F53A3F"></path>
                <path d="M36.6115087,39.3008315 L35.711432,40.7255769 C35.1572571,40.3615537 34.6013936,40.1892852 33.9577177,40.2771139 C32.7775983,40.4363917 32.0756623,41.5050213 32.3835684,43.7916741 C32.6855642,46.038225 33.6326431,46.8834704 34.8651122,46.7151556 C35.6033552,46.616313 36.0902635,46.1799935 36.5704171,45.6908639 L37.7359011,46.8470398 C37.2157817,47.547975 36.2754576,48.2644426 34.9881058,48.438688 C32.4401399,48.7835074 30.5068606,47.2915491 30.077368,44.1045815 C29.6571633,40.9831324 31.2189288,38.991313 33.6056239,38.6676741 C34.8651122,38.4971 35.7606857,38.7597389 36.6115087,39.3008315" id="Fill-6" fill="#4D5859"></path>
                <path d="M42.786238,42.2059847 L41.8557646,42.2864708 L41.6235684,39.5804431 L42.4181015,39.5121005 C43.5109714,39.4183412 44.0696495,39.7642903 44.148174,40.6708181 C44.2328904,41.6583968 43.7561143,42.1221097 42.786238,42.2059847 Z M44.8512358,43.1579801 C46.0164384,42.4988412 46.532336,41.7052764 46.4265109,40.4734153 C46.2587667,38.5264986 44.8737518,37.7326514 42.339577,37.9517995 L39.2790908,38.2169801 L40.084319,47.5897995 L42.2951079,47.3986097 L41.9866388,43.8137301 L42.85069,43.7400218 L45.0718925,47.1585634 L47.56582,46.9422394 L44.8512358,43.1579801 Z" id="Fill-8" fill="#4D5859"></path>
                <polygon id="Fill-10" fill="#4D5859" points="51.5065126 38.9196662 51.6145893 41.1718653 54.4946661 41.0306616 54.5700947 42.5909625 51.6905808 42.7310366 51.8065382 45.1309347 55.3342311 44.9606431 55.4121928 46.5596338 49.6672375 46.8386523 49.2129774 37.440981 54.9579326 37.1608329 54.8048239 38.7598236"></polygon>
                <path d="M60.08989,42.8052532 L61.0068537,38.6355079 L62.0648239,42.7705171 L60.08989,42.8052532 Z M62.3583761,36.9975449 L59.6674337,37.0438597 L57.0023846,46.4963181 L59.3012674,46.4564986 L59.738922,44.4268366 L62.471519,44.3788273 L62.9927642,46.3921097 L65.3459667,46.3528551 L62.3583761,36.9975449 Z" id="Fill-12" fill="#4D5859"></path>
                <path d="M74.4449322,46.4784981 L74.3520537,42.7956231 C74.3087104,41.4779102 74.3075846,40.1186833 74.3959599,38.9529056 L72.8263139,45.4564657 L70.7286678,45.4166463 L69.3084716,38.856887 C69.3777083,40.2435074 69.3554738,41.4106972 69.2769493,42.7272806 L69.0467232,46.3759843 L66.8806849,46.3350352 L67.7610601,36.9390583 L70.5626124,36.9929981 L71.8496827,43.401387 L73.2816998,37.0438315 L76.0961987,37.0972065 L76.6230729,46.520012 L74.4449322,46.4784981 Z" id="Fill-14" fill="#4D5859"></path>
                <polygon id="Fill-16" fill="#4D5859" points="81.9632751 38.9825583 81.8309936 41.2336278 84.7079744 41.4039194 84.6165032 42.9633731 81.7378337 42.7922343 81.5962644 45.1910028 85.123113 45.4008315 85.0285458 47.0015167 79.286968 46.6595213 79.8411429 37.2643917 85.583565 37.6052574 85.2596162 39.1782667"></polygon>
                <path d="M92.9219488,41.1549491 C92.8223156,42.1397037 92.2687036,42.5073981 91.2996716,42.4094028 L90.3711684,42.3150787 L90.6410789,39.6149815 L91.4358934,39.6949028 C92.5262303,39.8056065 93.0114499,40.2492685 92.9219488,41.1549491 M95.1966269,41.3836991 C95.3902644,39.4387593 94.1752452,38.4020417 91.6461365,38.1475926 L88.5895906,37.8386389 L87.6515181,47.19875 L89.8589296,47.4215694 L90.2174968,43.8420556 L91.0795778,43.9284722 L92.6320554,47.702 L95.1226055,47.952213 L93.1530192,43.7282454 C94.4195437,43.2978565 95.0727889,42.6118889 95.1966269,41.3836991" id="Fill-18" fill="#4D5859"></path>
                <polygon id="Fill-20" fill="#4D5859" points="100.988922 48.8155324 98.7953015 48.4825741 99.3187983 45.0075509 97.225374 38.7338704 99.6196682 39.0950694 100.715353 43.44725 103.044632 39.6146991 105.357869 39.964037 101.513545 45.3263889"></polygon>
                <path d="M19.3353262,23.6438824 L16.7344478,23.0206093 C16.7344478,23.0206093 16.7769467,17.5560259 17.9556588,17.5853963 C19.7425842,17.6277574 19.3353262,23.6438824 19.3353262,23.6438824 M25.2556247,16.8127296 C24.6184222,14.327262 24.3206482,12.1739056 17.3938849,12.2018639 C10.4676844,12.2312343 10.8901407,15.8717481 10.5639403,18.5760815 C10.2366141,21.2804148 8.62953518,40.9678824 8.62953518,40.9678824 C8.62953518,40.9678824 10.7809382,41.6397296 11.8501663,42.2861602 C13.4541493,43.2551 15.6756333,45.185637 15.6756333,45.185637 C15.6756333,45.185637 15.7693561,33.9014843 15.8245203,31.6416602 C15.8788401,29.3812713 16.7648443,28.9633083 18.4186439,29.0906741 C20.0724435,29.2191694 20.4684435,31.0195167 20.4245373,32.8568593 C20.3797868,34.6925074 20.6066354,45.9921926 20.6066354,45.9921926 C20.6066354,45.9921926 23.2607079,46.2232019 24.4439232,46.870762 C26.9890746,48.2619009 28.0163667,48.8668176 28.0163667,48.8668176 C28.0163667,48.8668176 25.8931087,19.2984796 25.2556247,16.8127296" id="Fill-22" fill="#F53A3F"></path>
                <path d="M28.8199625,34.5059491 C28.8199625,34.5059491 26.3949902,25.4149722 27.1563122,21.5680185 C27.9173527,17.7230417 29.1774038,17.2144259 30.5522866,16.9481157 C32.6544358,16.5406019 34.4579667,17.6803981 34.9814635,17.6626065 C34.9814635,17.6626065 36.531971,16.5312824 39.0844401,16.5493565 C41.6355019,16.5682778 43.3416512,18.3601528 43.603681,20.0286157 C43.8654294,21.6973611 43.3022482,27.0128333 43.387809,28.9478889 C43.4806874,31.0492824 43.4671778,34.3774537 43.4671778,34.3774537 L42.1131224,33.6697407 C41.4711352,33.3644583 40.978035,33.0266991 40.5274337,32.6906343 L39.3301458,31.8021806 C39.3301458,31.8021806 39.5668452,26.3703565 39.6048409,24.7702361 C39.6442439,23.1695509 39.4007898,21.5886343 38.6656426,21.7465 C37.9310584,21.9035185 37.6445424,31.3107917 37.6445424,31.3107917 C37.6445424,31.3107917 37.0954337,31.0696157 36.1387855,31.0464583 C35.1821373,31.0227361 34.6482269,31.4466296 34.6482269,31.4466296 C34.6482269,31.4466296 33.7152205,24.863713 33.586035,23.9416528 C33.4574124,23.0193102 32.5435446,21.6852176 32.055229,21.7600556 C31.5671949,21.8357407 31.5449603,23.3228981 31.9522183,26.0447407 C32.3591949,28.7668657 32.9496768,32.6157963 32.9496768,32.6157963 L32.4346235,33.0648241 C31.6338985,33.764912 30.6533271,34.2215648 29.6046448,34.3836667 L28.8199625,34.5059491 Z" id="Fill-24" fill="#F53A3F"></path>
                <path d="M50.3525399,23.8720958 C50.205623,26.3228273 49.1423053,25.7633782 49.1423053,25.7633782 L49.0620921,21.5608736 C49.0620921,21.5608736 50.4991753,21.4213644 50.3525399,23.8720958 M52.6823821,17.6486838 C50.4400708,16.6077301 48.0319855,17.9796653 48.0319855,17.9796653 L48.0578789,16.9149894 L44.453913,17.4484569 L45.1006849,34.8981282 C45.1006849,34.8981282 46.1963693,35.4160634 47.4921646,35.6515912 C49.1282328,35.9484014 49.3612733,35.9791838 49.3612733,35.9791838 L48.8555079,30.0763042 C48.8555079,30.0763042 49.5115676,30.9334106 50.635397,30.7865588 C51.7581006,30.6394245 54.3713629,29.1892625 54.4470729,26.0672486 C54.5177168,23.1737023 54.9255377,18.6899199 52.6823821,17.6486838" id="Fill-26" fill="#F53A3F"></path>
                <path d="M49.0620921,21.5608736 L49.2045921,25.7633782" id="Fill-28" fill="#F53A3F"></path>
                <path d="M59.4679139,12.0363731 C59.4679139,12.0363731 58.5197092,12.5918685 57.2683829,13.1874657 C56.0170567,13.7824981 55.3669075,13.9494009 55.3669075,13.9494009 L55.5678627,31.3504981 C55.5678627,31.3504981 56.1555301,31.8407574 58.0513765,31.1000028 C60.0128009,30.332137 60.1797006,29.5786741 60.1797006,29.5786741 L59.4679139,12.0363731 Z" id="Fill-30" fill="#F53A3F"></path>
                <path d="M101.429785,14.8957481 C101.429785,14.8957481 100.619209,15.1979241 99.1978874,16.0849657 C98.2882414,16.6520398 97.1022115,16.7904194 97.1022115,16.7904194 L97.6057254,36.5445352 C97.6057254,36.5445352 98.8939215,36.2505491 100.040548,35.865063 C101.049828,35.5258917 102.163525,34.6306602 102.163525,34.6306602 L101.429785,14.8957481 Z" id="Fill-32" fill="#F53A3F"></path>
                <path d="M94.7458849,17.5639898 C93.7011429,17.1319065 92.4582601,17.5374435 91.9201279,18.5569343 C91.3831215,19.5755778 91.5618422,20.9664343 92.605177,21.5433926 C93.6485117,22.1197861 94.0532367,22.0618926 94.585177,21.9856426 C94.9958124,21.9288787 96.050968,21.5775639 96.1567932,20.1892491 C96.2119574,19.4524481 96.1964776,18.1652352 94.7458849,17.5639898" id="Fill-34" fill="#F53A3F"></path>
                <path d="M91.6507522,22.5526037 C91.6507522,22.5526037 92.786684,23.0502056 94.0532085,23.151025 C95.319733,23.2529741 95.858991,22.7539602 95.858991,22.7539602 L96.1460699,36.7763352 C96.1460699,36.7763352 94.6895667,37.1011037 93.9839719,37.0841593 C93.2797842,37.0663676 91.9510593,37.1688815 91.9510593,37.1688815 L91.6507522,22.5526037 Z" id="Fill-36" fill="#F53A3F"></path>
                <path d="M107.439725,12.3486875 C107.439725,12.3486875 106.129013,13.4308727 105.114668,13.9471134 C104.100885,14.4644838 102.800587,14.4831227 102.800587,14.4831227 L103.727683,33.8684144 C103.727683,33.8684144 104.525593,33.7851042 106.004331,33.0090486 C107.481943,32.2341227 107.820809,31.5656644 107.820809,31.5656644 L107.439725,12.3486875 Z" id="Fill-38" fill="#F53A3F"></path>
                <path d="M116.07973,18.7980255 L116.280404,13.9688588 C116.280404,13.9688588 115.364848,12.1374468 113.411867,12.1450718 C111.458605,12.1526968 108.943287,13.8773588 108.729948,17.3125625 C108.516046,20.7477662 110.815492,21.8917986 111.13353,22.5531968 C111.452131,23.2140301 111.707688,24.4396782 110.913999,24.4207569 C110.120592,24.4004236 109.200814,23.4642431 109.200814,23.4642431 L109.33788,29.9999977 C109.33788,29.9999977 113.064276,30.3518773 115.22159,28.0527986 C117.379466,25.7540023 117.986272,22.0677384 116.132925,20.0617986 C115.147568,18.9959931 112.993914,18.6364884 112.990255,17.8855671 C112.982093,15.5641782 116.07973,18.7980255 116.07973,18.7980255" id="Fill-40" fill="#F53A3F"></path>
                <path d="M113.371873,34.6339361 C113.371873,34.6339361 111.776896,47.1183204 111.745374,47.3075333 C111.675012,47.7463944 111.902142,48.0982741 111.984606,48.063538 C112.065383,48.0265426 112.481084,47.4134361 112.723975,47.110413 C113.084513,46.6577139 113.802491,45.771237 113.802491,45.771237 C113.802491,45.771237 115.329638,44.1513481 115.684265,43.8435241 C116.040862,43.5357 117.996939,41.8104731 118.184666,41.6057278 C118.511992,41.2456583 120.253604,39.4580194 120.253604,39.4580194 C120.253604,39.4580194 119.167771,37.952788 118.557587,37.7776954 C117.947967,37.60345 117.354389,37.3540843 116.87902,37.1933944 C116.404777,37.0332694 115.72986,36.558825 115.63867,36.1323898 C115.547199,35.7082139 115.206926,35.4043435 114.891702,35.1222185 C114.682867,34.9338528 113.624052,34.6164269 113.624052,34.6164269" id="Fill-42" fill="#4D5859"></path>
                <path d="M107.803359,36.3073977 C107.803359,36.3073977 110.452646,40.2337079 110.966574,41.9386014 C111.497107,43.692069 111.278139,45.4410181 110.923794,47.2054995 C110.919572,47.2263977 110.909158,47.2458838 110.89396,47.2622634 C110.697226,47.458819 110.458838,47.4266245 110.226079,47.2981292 C110.086199,47.223856 109.947725,47.1179532 109.852595,46.9942588 C109.228058,46.2043653 108.589167,45.4249208 108.008536,44.6042449 C107.304911,43.6121477 107.14364,42.4455227 107.082003,41.2661894 C107.056672,40.8106662 107.04851,40.3554255 107.061457,39.9004671 C107.084536,38.965981 107.803359,36.3073977 107.803359,36.3073977" id="Fill-44" fill="#C3D600"></path>
                <path d="M121.883818,46.8187991 C120.839358,48.2816694 119.495435,48.9230167 117.914249,49.0797528 C116.557942,49.2122019 115.213456,49.0721278 113.897678,48.697938 C113.735844,48.6510583 113.569788,48.6053083 113.418368,48.5321648 C113.08091,48.3731694 112.982121,48.0930213 113.184202,47.7880213 C113.502241,47.3084935 113.840262,46.8447806 114.404287,46.6137713 C115.434113,46.1879009 116.449302,45.7157157 117.496296,45.3350306 C118.352748,45.0252296 119.235375,44.7719102 120.127571,44.5855213 C120.75633,44.4542019 121.428432,44.3432157 122.07633,44.3813407 C122.467264,44.405063 123.362838,44.5855213 123.362838,44.5855213 C123.362838,44.5855213 122.833993,45.525938 122.492313,45.9783546 C122.394368,46.1093917 121.891417,46.8094796 121.883818,46.8187991" id="Fill-46" fill="#C3D600"></path>
                <path d="M112.902443,36.4618463 C112.829547,36.4073417 112.652234,36.2407213 112.608328,36.144138 C112.564421,36.0475546 112.423696,35.6318509 112.359526,35.5976796 C112.294511,35.5643556 111.658716,35.38305 111.579628,35.3257213 C111.501104,35.2678278 110.985206,34.8286843 111.05782,34.2344991 C111.130153,33.6422907 111.453257,33.4330269 111.971406,33.1847907 C112.4904,32.936837 112.903568,32.9102907 112.903568,32.9102907 C112.903568,32.9102907 112.819133,32.7227722 112.862195,32.2901241 C112.903568,31.8577583 113.147867,31.2152815 113.693317,30.8038139 C113.693317,30.8038139 114.228635,30.3861333 114.779151,30.0780269 C115.328541,29.7718972 115.685419,29.6569574 116.145027,29.6216565 C116.865539,29.566587 117.435475,29.5468185 117.728183,29.5770361 C118.02089,29.6083833 118.43434,29.6425546 118.784183,29.9218556 C119.134306,30.2003093 119.708183,30.4937306 119.935313,30.7402722 C120.164413,30.9879435 121.047603,31.8786565 121.239551,32.3161056 C121.4315,32.7535546 121.699722,33.5863741 121.489479,34.538087 C121.280362,35.491212 120.855654,36.2395917 120.855654,36.2395917 C120.855654,36.2395917 121.083347,36.235638 121.232797,36.365263 C121.382246,36.494888 121.428404,36.5519343 121.428404,36.5519343 C121.428404,36.5519343 121.684242,36.5022306 121.958374,36.6713926 C122.231381,36.8402722 122.499321,37.1088417 122.533095,37.432763 C122.568276,37.755837 122.518741,38.538388 121.960626,38.9391241 C121.401948,39.3401426 120.537615,39.6197259 119.846937,39.3791148 C119.307679,39.1927259 118.672447,38.6089898 118.431244,38.5375407 C118.188916,38.4663741 117.955313,37.9577583 117.955313,37.9577583 C117.955313,37.9577583 116.555381,37.7747583 116.114912,37.6874944 C115.674724,37.5996657 115.509513,37.5606935 115.311372,36.6482352 C115.112387,35.7366241 115.203014,35.5988093 114.573692,35.2441056 C113.944652,34.8905315 113.347133,34.8241657 113.326306,34.9913509 C113.301539,35.1839528 113.34066,36.7916981 112.902443,36.4618463" id="Fill-48" fill="#F53A3F"></path>
                <path d="M80.731397,12.2643042 C80.731397,12.2643042 80.0764631,12.6190079 77.9126763,14.0426236 C75.6971028,15.5009755 74.746365,15.368244 74.746365,15.368244 L75.5321731,34.2508505 C75.5321731,34.2508505 76.6467147,34.1754477 78.3801646,34.4810125 C80.3064077,34.8215958 81.4752691,35.4988088 81.4752691,35.4988088 L81.3823906,25.1722995 C81.3823906,25.1722995 83.6444034,25.4304199 84.3775804,25.3129384 L84.9345697,35.2514199 C84.9345697,35.2514199 85.7901774,35.2291097 87.6680111,35.8094569 C89.6634908,36.4256699 90.5646934,37.0105356 90.5646934,37.0105356 L89.9474738,16.0395264 C89.9474738,16.0395264 88.8194226,15.6834106 87.4980154,14.8666884 C85.443994,13.6000912 84.362945,12.0592764 84.362945,12.0592764 L84.4960708,19.2411792 C83.9371113,19.6359847 83.7178618,19.7896144 83.1535548,19.9466329 C82.7066124,20.0725866 82.1622883,20.0008551 81.7395505,19.8254801 L81.1926934,19.6520819 L80.731397,12.2643042 Z" id="Fill-50" fill="#F53A3F"></path>
            </g>
        </g>
    </g>
</svg>