<?xml version="1.0" encoding="UTF-8"?>
<svg width="41px" height="43px" viewBox="0 0 41 43" version="1.1" xmlns="http://www.w3.org/2000/svg" xmlns:xlink="http://www.w3.org/1999/xlink">
    <desc>Decorative Right Arrow</desc>
    <defs></defs>
    <g id="Page-1" stroke="none" stroke-width="1" fill="none" fill-rule="evenodd">
        <g id="Disney-Collection" transform="translate(-911.000000, -1146.000000)" fill="#FE5C60">
            <path d="M925.775618,1148.73571 C920.264724,1152.80743 918.142736,1158.27715 919.235605,1164.9695 C920.450916,1172.41445 924.209172,1178.53858 929.839473,1185.09162 C929.390183,1182.1403 929.125061,1180.39857 928.860951,1178.65683 L929.87489,1178.39527 C930.737043,1181.50794 931.599195,1184.62162 932.812483,1189 C928.170824,1188.31353 924.479354,1187.76736 920.78586,1187.22319 C920.813182,1186.80029 920.83848,1186.37838 920.863778,1185.95648 L927.03343,1185.95648 C921.327235,1178.92942 918.078985,1171.5476 917.132843,1163.2919 C916.282834,1155.88302 919.554358,1150.31309 925.730082,1146.43979 C931.869377,1142.58953 938.367902,1141.70564 945,1145.15403 C938.00766,1143.60872 931.570862,1144.45553 925.775618,1148.73571 Z" id="Fill-1-Copy" transform="translate(931.000000, 1166.000000) scale(-1, 1) rotate(120.000000) translate(-931.000000, -1166.000000) "></path>
        </g>
    </g>
</svg>
