<svg width="40px" height="42px" viewBox="0 0 40 42" version="1.1" xmlns="http://www.w3.org/2000/svg" xmlns:xlink="http://www.w3.org/1999/xlink">
    <desc>Decorative Left Down Arrow Icon</desc>
    <defs></defs>
    <g id="Symbols" stroke="none" stroke-width="1" fill="none" fill-rule="evenodd">
        <g id="Footer/Big" transform="translate(-1154.000000, -215.000000)" fill="#FEB9C7">
            <path d="M1169.64095,220.514213 C1164.29533,224.463825 1162.23698,229.769505 1163.29708,236.261139 C1164.47594,243.482813 1168.12148,249.42327 1173.58293,255.779783 C1173.14711,252.916971 1172.88994,251.227474 1172.63375,249.537977 L1173.61728,249.284261 C1174.45358,252.30358 1175.28987,255.323872 1176.46677,259.570944 C1171.96432,258.90506 1168.38356,258.37527 1164.80084,257.847424 C1164.82734,257.437201 1164.85188,257.02795 1164.87642,256.618699 L1170.86104,256.618699 C1165.32598,249.802387 1162.17515,242.641953 1161.25738,234.633856 C1160.43286,227.447176 1163.60627,222.044286 1169.59678,218.287149 C1175.55195,214.55237 1181.85558,213.694984 1188.28877,217.039954 C1181.50614,215.540988 1175.26239,216.362406 1169.64095,220.514213 Z" id="Fill-1-Copy" transform="translate(1174.708648, 237.260735) scale(1, -1) rotate(120.000000) translate(-1174.708648, -237.260735) "></path>
        </g>
    </g>
</svg>