<?xml version="1.0" encoding="UTF-8"?>
<svg width="45px" height="32px" viewBox="0 0 45 32" version="1.1" xmlns="http://www.w3.org/2000/svg" xmlns:xlink="http://www.w3.org/1999/xlink">
    <!-- Generator: Sketch 49 (51002) - http://www.bohemiancoding.com/sketch -->
    <title>Fill 1 Copy 2</title>
    <desc>Created with Sketch.</desc>
    <defs></defs>
    <g id="Page-1" stroke="none" stroke-width="1" fill="none" fill-rule="evenodd">
        <g id="Disney-Collection" transform="translate(-286.000000, -1310.000000)" fill="#FE5C60">
            <path d="M303.857271,1306.51692 C298.346376,1310.58865 296.224388,1316.05837 297.317258,1322.75071 C298.532569,1330.19567 302.290825,1336.3198 307.921126,1342.87284 C307.471835,1339.92151 307.206713,1338.17978 306.942603,1336.43805 L307.956543,1336.17649 C308.818696,1339.28916 309.680848,1342.40283 310.894136,1346.78122 C306.252477,1346.09475 302.561007,1345.54857 298.867513,1345.00441 C298.894835,1344.5815 298.920133,1344.1596 298.945431,1343.73769 L305.115083,1343.73769 C299.408888,1336.71063 296.160638,1329.32881 295.214496,1321.07312 C294.364487,1313.66424 297.636011,1308.0943 303.811735,1304.221 C309.95103,1300.37075 316.449555,1299.48686 323.081653,1302.93525 C316.089313,1301.38993 309.652515,1302.23675 303.857271,1306.51692 Z" id="Fill-1-Copy-2" transform="translate(309.081653, 1323.781217) rotate(100.000000) translate(-309.081653, -1323.781217) "></path>
        </g>
    </g>
</svg>