<svg width="22px" height="16px" viewBox="0 0 22 16" version="1.1" xmlns="http://www.w3.org/2000/svg" xmlns:xlink="http://www.w3.org/1999/xlink">
    <desc>Decorative left to right arrow</desc>
    <defs></defs>
    <g id="Symbols" stroke="none" stroke-width="1" fill="none" fill-rule="evenodd">
        <g id="Newsletter/Desktop" transform="translate(-615.000000, -96.000000)" fill="#13436D">
            <path d="M636.252327,104.192171 L628.124698,111.749758 C627.740559,112.106955 627.145704,112.106623 626.761964,111.748998 L625.919396,110.963772 C625.515365,110.587238 625.493074,109.954466 625.869608,109.550435 C625.886518,109.532291 625.904096,109.514782 625.922307,109.497945 L629.727966,105.979433 C629.829347,105.885702 629.835548,105.727532 629.741816,105.626151 C629.694496,105.574969 629.627956,105.545867 629.55825,105.545867 L616,105.545867 C615.447715,105.545867 615,105.098152 615,104.545867 L615,103.473541 C615,102.921256 615.447715,102.473541 616,102.473541 L629.565653,102.473541 C629.703724,102.473541 629.815653,102.361612 629.815653,102.223541 C629.815653,102.154527 629.787123,102.088582 629.736822,102.04133 L625.953849,98.4876069 C625.551318,98.1094699 625.531543,97.4766138 625.90968,97.0740832 C625.925841,97.0568797 625.942606,97.0402538 625.959944,97.0242367 L626.800101,96.2480661 C627.18511,95.8923792 627.779431,95.8943365 628.162089,96.2525515 L636.252939,103.826581 C636.353736,103.92094 636.358955,104.079145 636.264597,104.179942 C636.260649,104.184159 636.256557,104.188238 636.252327,104.192171 Z" id="→"></path>
        </g>
    </g>
</svg>