<svg width="22px" height="16px" viewBox="0 0 22 16" version="1.1" xmlns="http://www.w3.org/2000/svg" xmlns:xlink="http://www.w3.org/1999/xlink">
    <defs></defs>
    <g id="News" stroke="none" stroke-width="1" fill="none" fill-rule="evenodd">
        <g transform="translate(-876.000000, -2434.000000)" fill="#13436D" id="Newsletter/Desktop">
            <g transform="translate(0.000000, 2434.000000)">
                <path d="M897.252327,8.20958106 L889.124698,15.7671676 C888.740559,16.1243644 888.145704,16.1240329 887.761964,15.7664083 L886.919396,14.981182 C886.515365,14.6046482 886.493074,13.9718757 886.869608,13.5678451 C886.886518,13.5497009 886.904096,13.532192 886.922307,13.5153548 L890.727966,9.99684295 C890.829347,9.90311154 890.835548,9.74494181 890.741816,9.64356096 C890.694496,9.59237865 890.627956,9.56327669 890.55825,9.56327669 L877,9.56327669 C876.447715,9.56327669 876,9.11556144 876,8.56327669 L876,7.49095105 C876,6.9386663 876.447715,6.49095105 877,6.49095105 L890.565653,6.49095105 C890.703724,6.49095105 890.815653,6.37902224 890.815653,6.24095105 C890.815653,6.17193659 890.787123,6.10599218 890.736822,6.05873953 L886.953849,2.50501674 C886.551318,2.12687976 886.531543,1.49402366 886.90968,1.09149308 C886.925841,1.0742896 886.942606,1.05766369 886.959944,1.04164661 L887.800101,0.26547599 C888.18511,-0.0902109366 888.779431,-0.0882536632 889.162089,0.269961417 L897.252939,7.84399104 C897.353736,7.9383497 897.358955,8.09655487 897.264597,8.19735217 C897.260649,8.20156898 897.256557,8.20564773 897.252327,8.20958106 Z" id="→-copy-2" transform="translate(886.666044, 8.017423) scale(-1, 1) translate(-886.666044, -8.017423) "></path>
            </g>
        </g>
    </g>
</svg>