<svg width="22" height="22" viewBox="0 0 22 22" fill="none" xmlns="http://www.w3.org/2000/svg">
<path d="M11 1C13.6522 1 16.1957 2.05357 18.0711 3.92893C19.9464 5.8043 21 8.34784 21 11C21 13.6522 19.9464 16.1957 18.0711 18.0711C16.1957 19.9464 13.6522 21 11 21C8.34784 21 5.8043 19.9464 3.92893 18.0711C2.05357 16.1957 1 13.6522 1 11C1 8.34784 2.05357 5.8043 3.92893 3.92893C5.8043 2.05357 8.34784 1 11 1V1ZM11 3C8.87827 3 6.84344 3.84285 5.34315 5.34315C3.84285 6.84344 3 8.87827 3 11C3 13.1217 3.84285 15.1566 5.34315 16.6569C6.84344 18.1571 8.87827 19 11 19C13.1217 19 15.1566 18.1571 16.6569 16.6569C18.1571 15.1566 19 13.1217 19 11C19 8.87827 18.1571 6.84344 16.6569 5.34315C15.1566 3.84285 13.1217 3 11 3V3ZM10 6C10.2341 5.99992 10.4607 6.08194 10.6405 6.23178C10.8203 6.38161 10.9419 6.58977 10.984 6.82L11 7V11H14C14.2499 10.9995 14.4909 11.0927 14.6756 11.261C14.8602 11.4294 14.9752 11.6608 14.9978 11.9096C15.0203 12.1585 14.9489 12.4068 14.7976 12.6057C14.6462 12.8045 14.4259 12.9395 14.18 12.984L14 13H10C9.76595 13.0001 9.53928 12.9181 9.35948 12.7682C9.17968 12.6184 9.05813 12.4102 9.016 12.18L9 12V7C9 6.73478 9.10536 6.48043 9.29289 6.29289C9.48043 6.10536 9.73478 6 10 6V6Z" fill="#13436D" stroke="#13436D" stroke-width="0.5"/>
</svg>
