<svg width="22px" height="16px" viewBox="0 0 22 16" version="1.1" xmlns="http://www.w3.org/2000/svg" xmlns:xlink="http://www.w3.org/1999/xlink">
    <defs></defs>
    <g id="News" stroke="none" stroke-width="1" fill="none" fill-rule="evenodd">
        <g transform="translate(-654.000000, -2460.000000)" fill="#13436D" id="Newsletter/Desktop">
            <g transform="translate(0.000000, 2434.000000)">
                <path d="M675.252327,34.2095811 L667.124698,41.7671676 C666.740559,42.1243644 666.145704,42.1240329 665.761964,41.7664083 L664.919396,40.981182 C664.515365,40.6046482 664.493074,39.9718757 664.869608,39.5678451 C664.886518,39.5497009 664.904096,39.532192 664.922307,39.5153548 L668.727966,35.996843 C668.829347,35.9031115 668.835548,35.7449418 668.741816,35.643561 C668.694496,35.5923787 668.627956,35.5632767 668.55825,35.5632767 L655,35.5632767 C654.447715,35.5632767 654,35.1155614 654,34.5632767 L654,33.4909511 C654,32.9386663 654.447715,32.4909511 655,32.4909511 L668.565653,32.4909511 C668.703724,32.4909511 668.815653,32.3790222 668.815653,32.2409511 C668.815653,32.1719366 668.787123,32.1059922 668.736822,32.0587395 L664.953849,28.5050167 C664.551318,28.1268798 664.531543,27.4940237 664.90968,27.0914931 C664.925841,27.0742896 664.942606,27.0576637 664.959944,27.0416466 L665.800101,26.265476 C666.18511,25.9097891 666.779431,25.9117463 667.162089,26.2699614 L675.252939,33.843991 C675.353736,33.9383497 675.358955,34.0965549 675.264597,34.1973522 C675.260649,34.201569 675.256557,34.2056477 675.252327,34.2095811 Z" id="→-copy"></path>
            </g>
        </g>
    </g>
</svg>