<svg width="194" height="38" viewBox="0 0 194 38" fill="none" xmlns="http://www.w3.org/2000/svg">
<path d="M1.17773 27.7168C1.33008 27.4121 1.48828 27.0723 1.65234 26.6973C1.81641 26.3105 1.96875 25.8945 2.10938 25.4492L2.58398 24.2891C2.37305 23.9727 2.15625 23.6328 1.93359 23.2695C1.72266 22.8945 1.5293 22.5137 1.35352 22.127C1.17773 21.7402 1.03125 21.3535 0.914062 20.9668C0.808594 20.5801 0.755859 20.2051 0.755859 19.8418C0.755859 19.8184 0.84375 19.8008 1.01953 19.7891C1.20703 19.7656 1.43555 19.748 1.70508 19.7363C1.98633 19.7246 2.28516 19.7188 2.60156 19.7188C2.92969 19.707 3.22852 19.7012 3.49805 19.7012C3.7793 19.6895 4.00781 19.6836 4.18359 19.6836C4.37109 19.6719 4.46484 19.666 4.46484 19.666C4.73438 18.9629 4.99805 18.2949 5.25586 17.6621C5.51367 17.0293 5.77148 16.3906 6.0293 15.7461C6.28711 15.1016 6.54492 14.4453 6.80273 13.7773C7.06055 13.0977 7.31836 12.3711 7.57617 11.5977C8.06836 10.1445 8.54883 8.86719 9.01758 7.76562C9.48633 6.66406 9.92578 5.63867 10.3359 4.68945C10.3828 4.57227 10.459 4.4668 10.5645 4.37305C10.6816 4.26758 10.8047 4.17969 10.9336 4.10938C11.0625 4.03906 11.1855 3.98047 11.3027 3.93359C11.4316 3.88672 11.5312 3.85156 11.6016 3.82812C11.6484 3.81641 11.8242 3.76367 12.1289 3.66992C12.4453 3.57617 12.8027 3.47656 13.2012 3.37109C13.5996 3.26562 13.9922 3.17188 14.3789 3.08984C14.7773 3.00781 15.0938 2.9668 15.3281 2.9668H15.6445C15.832 2.9668 16.0078 3.01367 16.1719 3.10742C16.3477 3.18945 16.4648 3.35937 16.5234 3.61719C17.0859 5.05859 17.6836 6.63477 18.3164 8.3457C18.9609 10.0449 19.5879 11.9199 20.1973 13.9707C20.5254 15.0723 20.8477 16.1152 21.1641 17.0996C21.4805 18.084 21.7969 19.0449 22.1133 19.9824C22.4297 20.9199 22.7461 21.8574 23.0625 22.7949C23.3906 23.7324 23.7246 24.6992 24.0645 25.6953C24.1699 26.1172 24.2754 26.4512 24.3809 26.6973C24.498 26.9434 24.6035 27.1367 24.6973 27.2773C24.791 27.418 24.8672 27.5234 24.9258 27.5938C24.9844 27.6523 25.0137 27.7168 25.0137 27.7871C25.0137 27.8574 24.9023 27.9277 24.6797 27.998L20.9004 29.2285C20.6191 29.334 20.332 29.4395 20.0391 29.5449C19.7461 29.6504 19.4707 29.7441 19.2129 29.8262C18.9551 29.9082 18.7266 29.9727 18.5273 30.0195C18.3398 30.0781 18.2051 30.1074 18.123 30.1074H18.0176C17.8535 30.1074 17.7363 30.0547 17.666 29.9492C17.5957 29.8555 17.5488 29.7617 17.5254 29.668C17.4082 29.2812 17.291 28.9355 17.1738 28.6309C17.0566 28.3145 16.9395 28.0039 16.8223 27.6992C16.7168 27.3828 16.6055 27.0488 16.4883 26.6973C16.3828 26.3457 16.2773 25.9297 16.1719 25.4492C16.1484 25.3906 16.084 25.3438 15.9785 25.3086C15.873 25.2617 15.7441 25.2266 15.5918 25.2031C15.4512 25.1797 15.2988 25.168 15.1348 25.168C14.9707 25.1562 14.8184 25.1504 14.6777 25.1504C14.2324 25.1504 13.8691 25.1562 13.5879 25.168C13.3184 25.168 13.0781 25.1738 12.8672 25.1855C12.6562 25.1855 12.4512 25.1914 12.252 25.2031C12.0645 25.2031 11.8301 25.2031 11.5488 25.2031C11.209 25.2031 10.8574 25.2031 10.4941 25.2031C10.1426 25.1914 9.82031 25.1797 9.52734 25.168L8.52539 25.1328C8.2207 25.9766 7.91602 26.7676 7.61133 27.5059C7.30664 28.2441 6.97852 29.0059 6.62695 29.791C6.60352 29.8848 6.54492 29.9609 6.45117 30.0195C6.36914 30.0781 6.28125 30.1074 6.1875 30.1074C6.11719 30.1074 6.07617 30.1016 6.06445 30.0898C4.92773 29.6797 3.97266 29.2754 3.19922 28.877C2.42578 28.4785 1.75195 28.0918 1.17773 27.7168ZM13.0254 11.9141C12.7441 12.957 12.4629 13.9062 12.1816 14.7617C11.9121 15.6055 11.6602 16.3555 11.4258 17.0117C11.2031 17.668 11.0098 18.2246 10.8457 18.6816C10.6816 19.127 10.5645 19.4727 10.4941 19.7188V19.877C10.4941 19.9473 10.4883 19.9941 10.4766 20.0176H14.6953C14.5664 19.4434 14.4258 18.8633 14.2734 18.2773C14.1328 17.6914 13.9922 17.0762 13.8516 16.4316C13.7109 15.7871 13.5703 15.0957 13.4297 14.3574C13.2891 13.6191 13.1543 12.8047 13.0254 11.9141ZM52.0488 29.6328C51.9199 29.668 51.75 29.7207 51.5391 29.791C51.3281 29.873 51.123 29.9141 50.9238 29.9141C50.7598 29.9141 50.6133 29.873 50.4844 29.791C50.3672 29.709 50.3086 29.5684 50.3086 29.3691V29.2637C50.3906 28.4082 50.4609 27.7168 50.5195 27.1895C50.5781 26.6504 50.625 26.2168 50.6602 25.8887C50.6953 25.5605 50.7246 25.3145 50.748 25.1504C50.7715 24.9746 50.7949 24.8164 50.8184 24.6758C50.8418 24.5234 50.8594 24.3594 50.8711 24.1836C50.8945 24.0078 50.9238 23.7617 50.959 23.4453C50.9941 23.1172 51.0352 22.6895 51.082 22.1621C51.1406 21.623 51.2109 20.9199 51.293 20.0527C51.3398 19.584 51.3867 19.1211 51.4336 18.6641C51.4922 18.1953 51.5215 17.7676 51.5215 17.3809C51.5215 16.8887 51.4922 16.4434 51.4336 16.0449C51.3867 15.6348 51.293 15.2891 51.1523 15.0078C51.0234 14.7148 50.8418 14.4863 50.6074 14.3223C50.373 14.1582 50.0742 14.0762 49.7109 14.0762C49.4883 14.0762 49.1953 14.123 48.832 14.2168C48.4805 14.3105 48.123 14.4805 47.7598 14.7266C47.3965 14.9609 47.0684 15.2773 46.7754 15.6758C46.4824 16.0625 46.2949 16.5547 46.2129 17.1523V17.2227C46.0723 18.5586 45.9434 19.7188 45.8262 20.7031C45.7207 21.6758 45.627 22.5137 45.5449 23.2168C45.4629 23.9199 45.3926 24.5059 45.334 24.9746C45.2871 25.4434 45.2461 25.8418 45.2109 26.1699C45.1758 26.4863 45.1465 26.75 45.123 26.9609C45.1113 27.1719 45.1055 27.3711 45.1055 27.5586C45.1055 27.6523 45.1055 27.7344 45.1055 27.8047C45.1172 27.8633 45.123 27.916 45.123 27.9629C45.123 28.0566 45.0762 28.1387 44.9824 28.209C44.9004 28.2676 44.707 28.3438 44.4023 28.4375L40.2715 29.6328C40.1426 29.668 39.9727 29.7207 39.7617 29.791C39.5508 29.873 39.3457 29.9141 39.1465 29.9141C38.9824 29.9141 38.8359 29.873 38.707 29.791C38.5898 29.709 38.5312 29.5684 38.5312 29.3691V29.2637C38.6133 28.4082 38.6777 27.7168 38.7246 27.1895C38.7832 26.6504 38.8301 26.2168 38.8652 25.8887C38.9121 25.5605 38.9473 25.3145 38.9707 25.1504C38.9941 24.9746 39.0117 24.8164 39.0234 24.6758C39.0469 24.5234 39.0703 24.3594 39.0938 24.1836C39.1172 24.0078 39.1406 23.7617 39.1641 23.4453C39.1992 23.1172 39.2402 22.6895 39.2871 22.1621C39.3457 21.623 39.416 20.9199 39.498 20.0527C39.5449 19.584 39.5918 19.1211 39.6387 18.6641C39.6973 18.1953 39.7266 17.7676 39.7266 17.3809C39.7266 16.8887 39.7031 16.4434 39.6562 16.0449C39.6094 15.6348 39.5215 15.2891 39.3926 15.0078C39.2754 14.7148 39.1113 14.4863 38.9004 14.3223C38.6895 14.1582 38.4199 14.0762 38.0918 14.0762C37.8574 14.0762 37.5352 14.1348 37.125 14.252C36.7266 14.3691 36.3223 14.5625 35.9121 14.832C35.5137 15.1016 35.1562 15.459 34.8398 15.9043C34.5352 16.3379 34.3594 16.877 34.3125 17.5215C34.2188 18.3887 34.1426 19.1035 34.084 19.666C34.0254 20.2168 33.9785 20.6738 33.9434 21.0371C33.9082 21.3887 33.8789 21.6758 33.8555 21.8984C33.8438 22.1094 33.832 22.3086 33.8203 22.4961C33.8086 22.543 33.791 22.6777 33.7676 22.9004C33.7441 23.1113 33.7148 23.3691 33.6797 23.6738C33.6562 23.9668 33.627 24.2891 33.5918 24.6406C33.5684 24.9805 33.5449 25.3027 33.5215 25.6074C33.498 25.9004 33.4746 26.1582 33.4512 26.3809C33.4395 26.5918 33.4336 26.7207 33.4336 26.7676V27.084C33.4336 27.2012 33.4277 27.3008 33.416 27.3828C33.4043 27.4648 33.3691 27.541 33.3105 27.6113C33.252 27.6816 33.1641 27.7461 33.0469 27.8047C32.9414 27.8633 32.7891 27.9277 32.5898 27.998L27.9844 29.6328C27.8555 29.6797 27.6855 29.7383 27.4746 29.8086C27.2637 29.8789 27.0586 29.9141 26.8594 29.9141C26.6953 29.9141 26.5488 29.873 26.4199 29.791C26.3027 29.709 26.2441 29.5684 26.2441 29.3691L27.8262 11.4395C27.8613 11.0527 27.9023 10.7891 27.9492 10.6484C28.0078 10.4961 28.1426 10.3965 28.3535 10.3496C29.4199 10.1387 30.5098 9.92773 31.623 9.7168C32.7363 9.49414 33.8262 9.21289 34.8926 8.87305C34.9863 8.87305 35.0391 8.89062 35.0508 8.92578C35.0742 8.94922 35.0859 8.99023 35.0859 9.04883L34.8574 11.6152C35.291 11.3926 35.7773 11.1523 36.3164 10.8945C36.8555 10.625 37.418 10.3789 38.0039 10.1562C38.6016 9.93359 39.2051 9.75195 39.8145 9.61133C40.4355 9.45898 41.0391 9.38281 41.625 9.38281C42.4336 9.38281 43.1777 9.57031 43.8574 9.94531C44.5488 10.3086 45.1172 10.918 45.5625 11.7734C46.0898 11.4336 46.6465 11.1172 47.2324 10.8242C47.8301 10.5312 48.4336 10.2793 49.043 10.0684C49.6641 9.85742 50.2852 9.69336 50.9062 9.57617C51.5273 9.45898 52.1309 9.40039 52.7168 9.40039C53.4551 9.40039 54.1523 9.50586 54.8086 9.7168C55.4648 9.92773 56.0332 10.2734 56.5137 10.7539C57.0059 11.2344 57.3926 11.8613 57.6738 12.6348C57.9551 13.3965 58.0957 14.3281 58.0957 15.4297C58.0957 15.7109 58.0898 16.0039 58.0781 16.3086C58.0664 16.6016 58.043 16.9062 58.0078 17.2227L57.1992 24.7461C57.1406 25.2383 57.1055 25.6953 57.0938 26.1172C57.082 26.5273 57.0762 27.0078 57.0762 27.5586C57.0762 27.6523 57.0762 27.7344 57.0762 27.8047C57.0879 27.8633 57.0938 27.916 57.0938 27.9629C57.0938 28.0684 57.0469 28.1504 56.9531 28.209C56.8711 28.2676 56.6777 28.3438 56.373 28.4375L52.0488 29.6328ZM68.6074 16.7305C68.5371 17.8555 68.4727 18.7695 68.4141 19.4727C68.3672 20.1758 68.3262 20.75 68.291 21.1953C68.2559 21.6289 68.2266 21.9746 68.2031 22.2324C68.1797 22.4785 68.1621 22.7129 68.1504 22.9355C68.4199 23.6387 68.8184 24.2129 69.3457 24.6582C69.873 25.0918 70.5059 25.3086 71.2441 25.3086C71.8887 25.3086 72.4512 25.1094 72.9316 24.7109C73.4238 24.3008 73.8281 23.7734 74.1445 23.1289C74.4727 22.4844 74.7188 21.7637 74.8828 20.9668C75.0469 20.1699 75.1289 19.3789 75.1289 18.5938C75.1289 17.9492 75.0703 17.3516 74.9531 16.8008C74.8477 16.25 74.6836 15.7754 74.4609 15.377C74.2383 14.9668 73.957 14.6504 73.6172 14.4277C73.2891 14.1934 72.8965 14.0762 72.4395 14.0762C72.0645 14.0762 71.6895 14.1523 71.3145 14.3047C70.9512 14.4453 70.5996 14.6328 70.2598 14.8672C69.9199 15.0898 69.6094 15.3477 69.3281 15.6406C69.0586 15.9219 68.8359 16.1973 68.6602 16.4668L68.6074 16.7305ZM68.959 11.5801C69.9434 10.9121 70.9746 10.3789 72.0527 9.98047C73.1309 9.58203 74.2559 9.38281 75.4277 9.38281C76.5293 9.38281 77.4785 9.61133 78.2754 10.0684C79.084 10.5137 79.752 11.123 80.2793 11.8965C80.8066 12.6582 81.1934 13.5371 81.4395 14.5332C81.6973 15.5293 81.8262 16.5723 81.8262 17.6621C81.8262 18.6113 81.7324 19.5723 81.5449 20.5449C81.3574 21.5176 81.082 22.4609 80.7188 23.375C80.3555 24.2773 79.9043 25.127 79.3652 25.9238C78.8262 26.7207 78.2051 27.418 77.502 28.0156C76.8105 28.6016 76.0371 29.0645 75.1816 29.4043C74.3262 29.7441 73.4004 29.9141 72.4043 29.9141C71.5254 29.9141 70.6816 29.7383 69.873 29.3867C69.0762 29.0352 68.3262 28.5781 67.623 28.0156C67.623 28.0742 67.6055 28.291 67.5703 28.666C67.5469 29.0293 67.5117 29.4746 67.4648 30.002C67.418 30.5293 67.3652 31.0918 67.3066 31.6895C67.248 32.2988 67.1953 32.8672 67.1484 33.3945C67.1016 33.9219 67.0605 34.3672 67.0254 34.7305C67.002 35.1055 66.9902 35.3223 66.9902 35.3809C66.9902 35.4746 66.9902 35.5508 66.9902 35.6094C67.002 35.6797 67.0078 35.7441 67.0078 35.8027C67.0078 35.8965 66.9609 35.9727 66.8672 36.0312C66.7852 36.1016 66.5918 36.1777 66.2871 36.2598L61.6641 37.4375C61.5352 37.4727 61.3652 37.5254 61.1543 37.5957C60.9434 37.6777 60.7383 37.7188 60.5391 37.7188C60.375 37.7188 60.2285 37.6777 60.0996 37.5957C59.9824 37.5137 59.9238 37.3613 59.9238 37.1387L62.0684 11.4043C62.1035 11.0176 62.1445 10.7539 62.1914 10.6133C62.25 10.4609 62.3848 10.3613 62.5957 10.3145C63.6621 10.1035 64.7578 9.89258 65.8828 9.68164C67.0078 9.45898 68.1035 9.17773 69.1699 8.83789C69.2637 8.83789 69.3164 8.85547 69.3281 8.89062C69.3516 8.91406 69.3633 8.95508 69.3633 9.01367C69.3633 9.03711 69.3574 9.07227 69.3457 9.11914C69.3457 9.16602 69.3281 9.27148 69.293 9.43555C69.2695 9.59961 69.2285 9.85156 69.1699 10.1914C69.123 10.5195 69.0527 10.9824 68.959 11.5801ZM85.2715 14.1289C85.4121 12.5234 85.5234 10.9355 85.6055 9.36523C85.6992 7.79492 85.7988 6.18359 85.9043 4.53125C85.9277 4.14453 85.9629 3.88086 86.0098 3.74023C86.0684 3.58789 86.2031 3.48828 86.4141 3.44141C87.5039 3.24219 88.5938 3.04297 89.6836 2.84375C90.7852 2.63281 91.8867 2.35742 92.9883 2.01758C93.0234 2.00586 93.0762 2 93.1465 2C93.2754 2 93.3398 2.05859 93.3398 2.17578L91.0547 27.2773V27.5762C91.0547 27.6816 91.0137 27.7695 90.9316 27.8398C90.8496 27.8984 90.6562 27.9688 90.3516 28.0508L85.7461 29.7383C85.6172 29.7969 85.4473 29.8555 85.2363 29.9141C85.0254 29.9844 84.8203 30.0195 84.6211 30.0195C84.457 30.0195 84.3105 29.9785 84.1816 29.8965C84.0645 29.8145 84.0059 29.6738 84.0059 29.4746V29.3691C84.0996 28.1855 84.1875 27.0312 84.2695 25.9062C84.3633 24.7695 84.457 23.5977 84.5508 22.3906C84.6562 21.1836 84.7676 19.9062 84.8848 18.5586C85.002 17.2109 85.1309 15.7344 85.2715 14.1289ZM105.469 9.38281C106.582 9.38281 107.59 9.59375 108.492 10.0156C109.406 10.4258 110.186 10.9648 110.83 11.6328C111.486 12.2891 111.99 13.0273 112.342 13.8477C112.693 14.668 112.869 15.4883 112.869 16.3086C112.869 17.0352 112.646 17.7676 112.201 18.5059C111.756 19.2324 111.129 19.8887 110.32 20.4746C109.523 21.0605 108.562 21.5352 107.438 21.8984C106.312 22.2617 105.076 22.4434 103.729 22.4434C103.025 22.4434 102.287 22.373 101.514 22.2324C101.561 22.7363 101.707 23.1699 101.953 23.5332C102.199 23.8965 102.51 24.1953 102.885 24.4297C103.26 24.6641 103.682 24.8398 104.15 24.957C104.631 25.0625 105.123 25.1152 105.627 25.1152C106.189 25.1152 106.729 25.0684 107.244 24.9746C107.771 24.8691 108.275 24.7344 108.756 24.5703C109.236 24.4062 109.699 24.2246 110.145 24.0254C110.59 23.8262 111.012 23.627 111.41 23.4277C111.516 23.4043 111.604 23.3867 111.674 23.375C111.756 23.3516 111.832 23.3398 111.902 23.3398C111.902 23.3398 111.896 23.4336 111.885 23.6211C111.885 23.8086 111.885 24.0723 111.885 24.4121C111.885 24.752 111.879 25.1621 111.867 25.6426C111.867 26.123 111.861 26.6562 111.85 27.2422C111.885 27.3008 111.908 27.3594 111.92 27.418C111.932 27.4766 111.938 27.5234 111.938 27.5586C111.938 27.6992 111.809 27.8516 111.551 28.0156C111.293 28.1797 110.953 28.3496 110.531 28.5254C110.121 28.7012 109.646 28.8711 109.107 29.0352C108.58 29.1992 108.041 29.3457 107.49 29.4746C106.939 29.6152 106.406 29.7207 105.891 29.791C105.375 29.873 104.924 29.9141 104.537 29.9141C103.271 29.9141 102.041 29.6914 100.846 29.2461C99.6621 28.8125 98.6074 28.1855 97.6816 27.3652C96.7676 26.5449 96.0352 25.5488 95.4844 24.377C94.9336 23.2051 94.6582 21.8867 94.6582 20.4219C94.6582 18.8867 94.9219 17.4512 95.4492 16.1152C95.9766 14.7676 96.7148 13.5957 97.6641 12.5996C98.625 11.6035 99.7676 10.8184 101.092 10.2441C102.416 9.66992 103.875 9.38281 105.469 9.38281ZM105.258 14.0586C104.777 14.0586 104.332 14.1641 103.922 14.375C103.523 14.5742 103.154 14.8672 102.814 15.2539C102.486 15.6289 102.199 16.0859 101.953 16.625C101.707 17.1523 101.508 17.7383 101.355 18.3828C102.562 18.1719 103.564 17.9492 104.361 17.7148C105.158 17.4805 105.797 17.2461 106.277 17.0117C106.758 16.7656 107.098 16.5254 107.297 16.291C107.496 16.0449 107.596 15.8105 107.596 15.5879C107.596 15.377 107.514 15.1777 107.35 14.9902C107.197 14.8027 107.004 14.6387 106.77 14.498C106.535 14.3574 106.277 14.252 105.996 14.1816C105.727 14.0996 105.48 14.0586 105.258 14.0586ZM139.412 5.84961C139.412 5.42773 139.447 5.14062 139.518 4.98828C139.6 4.82422 139.758 4.71289 139.992 4.6543L146.039 3.19531C146.191 3.14844 146.35 3.125 146.514 3.125C146.678 3.125 146.789 3.17773 146.848 3.2832C146.906 3.37695 146.936 3.57617 146.936 3.88086L146.725 6.64062C146.666 7.44922 146.602 8.25195 146.531 9.04883C146.461 9.8457 146.355 10.543 146.215 11.1406L145.898 13.6367C145.805 14.375 145.717 15.1777 145.635 16.0449C145.553 16.9004 145.465 17.8613 145.371 18.9277L144.545 27.5938C144.533 27.6992 144.51 27.8047 144.475 27.9102C144.439 28.0156 144.363 28.0918 144.246 28.1387C144.164 28.1738 143.971 28.25 143.666 28.3672C143.373 28.4844 143.021 28.6191 142.611 28.7715C142.201 28.9238 141.762 29.082 141.293 29.2461C140.824 29.4219 140.379 29.5801 139.957 29.7207C139.535 29.8613 139.16 29.9785 138.832 30.0723C138.504 30.166 138.281 30.2129 138.164 30.2129C138 30.2129 137.854 30.166 137.725 30.0723C137.607 29.9902 137.549 29.8262 137.549 29.5801C137.549 28.1621 137.631 26.7148 137.795 25.2383C137.959 23.75 138.105 22.2734 138.234 20.8086C138.258 20.6445 138.264 20.4922 138.252 20.3516C138.252 20.2109 138.264 20.0586 138.287 19.8945H131.854L131.133 27.5938C131.121 27.6992 131.098 27.8047 131.062 27.9102C131.039 28.0039 130.963 28.0801 130.834 28.1387C130.787 28.1621 130.553 28.25 130.131 28.4023C129.721 28.543 129.24 28.7129 128.689 28.9121C128.15 29.0996 127.611 29.2871 127.072 29.4746C126.545 29.6738 126.141 29.8262 125.859 29.9316C125.719 29.9902 125.543 30.0488 125.332 30.1074C125.133 30.1777 124.934 30.2129 124.734 30.2129C124.57 30.2129 124.424 30.166 124.295 30.0723C124.178 29.9785 124.119 29.8086 124.119 29.5625C124.119 29 124.137 28.3613 124.172 27.6465C124.219 26.9199 124.271 26.1641 124.33 25.3789C124.389 24.582 124.459 23.7676 124.541 22.9355C124.623 22.1035 124.705 21.2832 124.787 20.4746L124.822 19.9648C123.873 19.9648 123.182 19.9414 122.748 19.8945C122.326 19.8359 122.115 19.6953 122.115 19.4727C122.115 19.3203 122.203 19.1211 122.379 18.875C122.613 18.5469 122.883 18.1543 123.188 17.6973C123.504 17.2285 123.803 16.7715 124.084 16.3262C124.377 15.8691 124.635 15.4648 124.857 15.1133C125.092 14.75 125.244 14.5156 125.314 14.4102L125.719 10.1738C125.719 10.1504 125.73 9.97461 125.754 9.64648C125.777 9.31836 125.807 8.93164 125.842 8.48633C125.877 8.0293 125.912 7.56055 125.947 7.08008C125.994 6.59961 126.035 6.18945 126.07 5.84961C126.094 5.43945 126.123 5.15234 126.158 4.98828C126.205 4.82422 126.346 4.71289 126.58 4.6543L132.557 3.19531C132.709 3.14844 132.867 3.125 133.031 3.125C133.195 3.125 133.307 3.17773 133.365 3.2832C133.424 3.37695 133.453 3.57617 133.453 3.88086C133.371 4.72461 133.307 5.49219 133.26 6.18359C133.213 6.875 133.16 7.51953 133.102 8.11719C133.055 8.71484 133.002 9.2832 132.943 9.82227C132.885 10.3613 132.803 10.9121 132.697 11.4746L132.346 14.1992L138.727 14.1289C138.832 12.5703 138.949 11.2461 139.078 10.1562C139.207 9.06641 139.289 8.20508 139.324 7.57227C139.359 6.97461 139.383 6.54688 139.395 6.28906C139.406 6.03125 139.412 5.88477 139.412 5.84961ZM149.098 21.5469C149.25 19.9414 149.402 18.3535 149.555 16.7832C149.707 15.2129 149.842 13.6016 149.959 11.9492C149.982 11.5625 150.018 11.2988 150.064 11.1582C150.123 11.0059 150.258 10.9062 150.469 10.8594C151.465 10.6602 152.508 10.4551 153.598 10.2441C154.688 10.0215 155.742 9.74023 156.762 9.40039C156.797 9.38867 156.85 9.38281 156.92 9.38281C157.049 9.38281 157.113 9.42969 157.113 9.52344L155.531 26.6445C155.496 27.0312 155.455 27.3008 155.408 27.4531C155.361 27.5938 155.232 27.6875 155.021 27.7344C154.025 28.0391 153.018 28.3789 151.998 28.7539C150.979 29.1289 149.9 29.5098 148.764 29.8965C148.729 29.9082 148.676 29.9141 148.605 29.9141C148.477 29.9141 148.412 29.8555 148.412 29.7383C148.412 29.7266 148.424 29.5684 148.447 29.2637C148.471 28.959 148.5 28.5664 148.535 28.0859C148.582 27.6055 148.629 27.0664 148.676 26.4688C148.723 25.8711 148.77 25.2734 148.816 24.6758C148.875 24.0781 148.928 23.5039 148.975 22.9531C149.021 22.4023 149.062 21.9336 149.098 21.5469ZM150.416 7.51953C150.451 7.01562 150.475 6.62891 150.486 6.35938C150.51 6.08984 150.527 5.89062 150.539 5.76172C150.551 5.62109 150.557 5.5332 150.557 5.49805C150.557 5.46289 150.557 5.43945 150.557 5.42773C150.568 5.4043 150.574 5.36914 150.574 5.32227C150.586 5.26367 150.598 5.15234 150.609 4.98828C150.621 4.8125 150.639 4.56055 150.662 4.23242C150.686 3.9043 150.721 3.45313 150.768 2.87891C150.791 2.49219 150.826 2.22852 150.873 2.08789C150.932 1.93555 151.066 1.83594 151.277 1.78906C152.273 1.58984 153.316 1.38477 154.406 1.17383C155.496 0.951172 156.551 0.669922 157.57 0.330078C157.605 0.318359 157.658 0.3125 157.729 0.3125C157.764 0.382812 157.811 0.429688 157.869 0.453125L157.922 0.488281L157.535 5.30469C157.5 5.69141 157.453 5.96094 157.395 6.11328C157.348 6.26562 157.225 6.35938 157.025 6.39453C156.029 6.58203 155.021 6.78711 154.002 7.00977C152.982 7.23242 151.904 7.45508 150.768 7.67773C150.732 7.68945 150.68 7.69531 150.609 7.69531C150.48 7.69531 150.416 7.63672 150.416 7.51953ZM160.611 14.1289C160.752 12.5234 160.863 10.9355 160.945 9.36523C161.039 7.79492 161.139 6.18359 161.244 4.53125C161.268 4.14453 161.303 3.88086 161.35 3.74023C161.408 3.58789 161.543 3.48828 161.754 3.44141C162.844 3.24219 163.934 3.04297 165.023 2.84375C166.125 2.63281 167.227 2.35742 168.328 2.01758C168.363 2.00586 168.416 2 168.486 2C168.615 2 168.68 2.05859 168.68 2.17578L166.395 27.2773V27.5762C166.395 27.6816 166.354 27.7695 166.271 27.8398C166.189 27.8984 165.996 27.9688 165.691 28.0508L161.086 29.7383C160.957 29.7969 160.787 29.8555 160.576 29.9141C160.365 29.9844 160.16 30.0195 159.961 30.0195C159.797 30.0195 159.65 29.9785 159.521 29.8965C159.404 29.8145 159.346 29.6738 159.346 29.4746V29.3691C159.439 28.1855 159.527 27.0312 159.609 25.9062C159.703 24.7695 159.797 23.5977 159.891 22.3906C159.996 21.1836 160.107 19.9062 160.225 18.5586C160.342 17.2109 160.471 15.7344 160.611 14.1289ZM171.545 14.1289C171.686 12.5234 171.797 10.9355 171.879 9.36523C171.973 7.79492 172.072 6.18359 172.178 4.53125C172.201 4.14453 172.236 3.88086 172.283 3.74023C172.342 3.58789 172.477 3.48828 172.688 3.44141C173.777 3.24219 174.867 3.04297 175.957 2.84375C177.059 2.63281 178.16 2.35742 179.262 2.01758C179.297 2.00586 179.35 2 179.42 2C179.549 2 179.613 2.05859 179.613 2.17578L177.328 27.2773V27.5762C177.328 27.6816 177.287 27.7695 177.205 27.8398C177.123 27.8984 176.93 27.9688 176.625 28.0508L172.02 29.7383C171.891 29.7969 171.721 29.8555 171.51 29.9141C171.299 29.9844 171.094 30.0195 170.895 30.0195C170.73 30.0195 170.584 29.9785 170.455 29.8965C170.338 29.8145 170.279 29.6738 170.279 29.4746V29.3691C170.373 28.1855 170.461 27.0312 170.543 25.9062C170.637 24.7695 170.73 23.5977 170.824 22.3906C170.93 21.1836 171.041 19.9062 171.158 18.5586C171.275 17.2109 171.404 15.7344 171.545 14.1289ZM181.354 24.1484C181.354 24.1367 181.348 24.1309 181.336 24.1309C181.336 24.1191 181.336 24.1074 181.336 24.0957C181.336 23.9434 181.418 23.8672 181.582 23.8672C181.688 23.8672 181.781 23.9082 181.863 23.9902C182.332 24.4355 182.865 24.7988 183.463 25.0801C184.072 25.3613 184.729 25.502 185.432 25.502C185.619 25.502 185.836 25.4844 186.082 25.4492C186.328 25.4023 186.562 25.332 186.785 25.2383C187.008 25.1445 187.189 25.0215 187.33 24.8691C187.482 24.7051 187.559 24.5059 187.559 24.2715C187.559 24.0137 187.494 23.7793 187.365 23.5684C187.236 23.3457 187.066 23.1641 186.855 23.0234C186.738 22.9414 186.533 22.8008 186.24 22.6016C185.947 22.3906 185.631 22.168 185.291 21.9336C184.963 21.6992 184.646 21.4766 184.342 21.2656C184.049 21.0547 183.844 20.9023 183.727 20.8086C183.199 20.4102 182.777 20.0059 182.461 19.5957C182.156 19.1855 181.922 18.7637 181.758 18.3301C181.594 17.8848 181.488 17.4219 181.441 16.9414C181.395 16.4609 181.371 15.9512 181.371 15.4121C181.371 14.5918 181.588 13.8184 182.021 13.0918C182.455 12.3652 183.023 11.7266 183.727 11.1758C184.441 10.625 185.25 10.1914 186.152 9.875C187.055 9.54688 187.975 9.38281 188.912 9.38281C189.686 9.38281 190.447 9.5 191.197 9.73438C191.947 9.96875 192.645 10.3672 193.289 10.9297C193.348 11.668 193.389 12.3945 193.412 13.1094C193.436 13.8242 193.471 14.5742 193.518 15.3594C193.518 15.5117 193.482 15.6172 193.412 15.6758C193.342 15.7227 193.26 15.7461 193.166 15.7461C193.084 15.7461 193.014 15.7168 192.955 15.6582C192.686 15.4004 192.41 15.1484 192.129 14.9023C191.848 14.6445 191.549 14.4219 191.232 14.2344C190.928 14.0352 190.6 13.877 190.248 13.7598C189.896 13.6309 189.521 13.5664 189.123 13.5664C188.877 13.5664 188.631 13.5898 188.385 13.6367C188.139 13.6719 187.916 13.748 187.717 13.8652C187.518 13.9707 187.354 14.1172 187.225 14.3047C187.107 14.4922 187.049 14.7324 187.049 15.0254C187.049 15.3652 187.09 15.6582 187.172 15.9043C187.254 16.1504 187.447 16.3906 187.752 16.625L191.021 18.8398C191.619 19.25 192.1 19.6543 192.463 20.0527C192.838 20.4395 193.131 20.8262 193.342 21.2129C193.553 21.5996 193.693 21.9863 193.764 22.373C193.846 22.748 193.887 23.123 193.887 23.498C193.887 24.5527 193.641 25.4844 193.148 26.293C192.668 27.0898 192.041 27.7578 191.268 28.2969C190.494 28.8242 189.615 29.2227 188.631 29.4922C187.658 29.7734 186.68 29.9141 185.695 29.9141C184.945 29.9141 184.219 29.832 183.516 29.668C182.824 29.5156 182.18 29.2754 181.582 28.9473L181.354 24.1484Z" fill="white"/>
</svg>
